<svg width="15" height="15" viewBox="0 0 15 15" fill="none" xmlns="http://www.w3.org/2000/svg">
<path d="M10.5729 9.20991C10.5691 9.21985 10.579 9.20138 10.5729 9.20991V9.20991ZM4.39037 5.77381C4.38424 5.78233 4.39414 5.76386 4.39037 5.77381V5.77381ZM10.3043 6.22096L9.02278 6.92249C9.08968 7.10202 9.12596 7.2967 9.12596 7.49944C9.12596 7.70217 9.08968 7.89638 9.02278 8.07638L10.3043 8.77791C10.4094 8.66991 10.5413 8.59128 10.6907 8.55006L11.7013 8.27012C11.8266 8.23507 11.9567 8.30943 11.9911 8.43543C12.0255 8.56143 11.952 8.69217 11.8266 8.72675L10.816 9.00669C10.7232 9.03227 10.6247 9.12938 10.5729 9.20991C10.5338 9.29754 10.5187 9.4098 10.5479 9.50264L10.8622 10.5078C10.9013 10.6324 10.8325 10.7655 10.7081 10.8048C10.5832 10.8436 10.4518 10.7745 10.4127 10.6499L10.0984 9.64475C10.0518 9.49648 10.0461 9.34206 10.0791 9.19475L8.79662 8.49275C8.54031 8.83664 8.15444 9.07727 7.71202 9.14122V10.6082C7.85666 10.6494 7.98859 10.7281 8.09601 10.8403L8.82348 11.5987C8.91394 11.693 8.91111 11.8426 8.81735 11.9336C8.77165 11.9781 8.71276 11.9999 8.65386 11.9999C8.59214 11.9999 8.53042 11.9757 8.48425 11.9274L7.75678 11.1691C7.68988 11.0994 7.56549 11.0445 7.47173 11.0487C7.36949 11.0487 7.26254 11.0994 7.19563 11.1691L6.46817 11.9274C6.37818 12.0217 6.22929 12.0245 6.13506 11.9336C6.0413 11.8426 6.03847 11.693 6.12893 11.5987L6.8564 10.8403C6.96429 10.7281 7.09575 10.6494 7.24039 10.6082V9.14122C6.79845 9.07727 6.4121 8.83664 6.15579 8.49275L4.8733 9.19475C4.90675 9.34206 4.90063 9.49648 4.85399 9.64475L4.53972 10.6499C4.50062 10.774 4.36869 10.8432 4.24431 10.8048C4.11992 10.7655 4.05113 10.6324 4.09024 10.5078L4.4045 9.50264C4.43324 9.41075 4.40921 9.28427 4.37105 9.19712C4.31875 9.11754 4.22876 9.03227 4.13641 9.00717L3.1729 8.74049C3.04757 8.70591 2.97407 8.57517 3.00847 8.44917C3.04286 8.32317 3.17243 8.2488 3.29823 8.28385L4.26174 8.55054C4.4111 8.59175 4.54302 8.67038 4.64809 8.77838L5.92964 8.07685C5.86273 7.89733 5.82645 7.70265 5.82645 7.49991C5.82645 7.29717 5.86273 7.10296 5.92964 6.92296L4.64809 6.22144C4.54302 6.32944 4.4111 6.40807 4.26174 6.44928L3.29823 6.71596C3.17196 6.75007 3.04286 6.67665 3.00847 6.55065C2.97407 6.42465 3.04757 6.29391 3.1729 6.25933L4.13641 5.99265C4.22923 5.96707 4.33713 5.85433 4.38895 5.77428C4.42806 5.68665 4.43371 5.58954 4.4045 5.49718L4.09024 4.49202C4.05113 4.36744 4.11992 4.23434 4.24431 4.19502C4.36917 4.15523 4.50015 4.22534 4.53972 4.34992L4.85399 5.35507C4.90063 5.50333 4.90628 5.65776 4.8733 5.80507L6.15579 6.50707C6.4121 6.16318 6.79798 5.92254 7.24039 5.8586V4.3916C7.09575 4.35039 6.96382 4.27176 6.8564 4.15949L6.12893 3.40113C6.03847 3.30687 6.0413 3.15718 6.13506 3.06623C6.22929 2.97576 6.37818 2.97813 6.46817 3.07239L7.19563 3.83076C7.26254 3.90039 7.38033 3.94255 7.47503 3.95013C7.5702 3.94255 7.68988 3.90039 7.75678 3.83076L8.48425 3.07239C8.57471 2.97813 8.72359 2.97576 8.81735 3.06623C8.91111 3.15718 8.91394 3.30687 8.82348 3.40113L8.09601 4.15949C7.98812 4.27176 7.85666 4.35039 7.71202 4.3916V5.8586C8.15396 5.92254 8.54031 6.16318 8.79662 6.50707L10.0791 5.80507C10.0457 5.65776 10.0518 5.50333 10.0984 5.35507L10.4127 4.34992C10.4518 4.22534 10.5828 4.15476 10.7081 4.19502C10.8325 4.23434 10.9013 4.36744 10.8622 4.49202L10.5479 5.49718C10.5196 5.58812 10.5427 5.71318 10.5809 5.80081L10.5818 5.80318C10.6341 5.88275 10.7241 5.96802 10.8165 5.99312L11.8271 6.27307C11.9524 6.30765 12.0259 6.43839 11.9915 6.56438C11.9571 6.69038 11.8276 6.76381 11.7018 6.7297L10.6911 6.44975C10.5418 6.40854 10.4099 6.32991 10.3048 6.22191L10.3043 6.22096ZM8.6548 7.49944C8.6548 6.8467 8.12617 6.31523 7.47691 6.31523C6.82766 6.31523 6.29902 6.8467 6.29902 7.49944C6.29902 8.15217 6.82766 8.68364 7.47691 8.68364C8.12617 8.68364 8.6548 8.15217 8.6548 7.49944Z" fill="#9F999A"/>
<path d="M15 12.1875V2.8125C15 1.26188 13.7381 0 12.1875 0H2.8125C1.26188 0 0 1.26188 0 2.8125V12.1875C0 13.7381 1.26188 15 2.8125 15H12.1875C13.7381 15 15 13.7381 15 12.1875ZM12.1875 0.625C13.3938 0.625 14.375 1.60625 14.375 2.8125V12.1875C14.375 13.3938 13.3938 14.375 12.1875 14.375H2.8125C1.60625 14.375 0.625 13.3938 0.625 12.1875V2.8125C0.625 1.60625 1.60625 0.625 2.8125 0.625H12.1875Z" fill="#9F999A"/>
</svg>
