<svg width="15" height="15" viewBox="0 0 15 15" fill="none" xmlns="http://www.w3.org/2000/svg">
<path d="M7.03292 4.4473L5.57984 5.90038C5.04449 6.43572 4.50609 6.97107 3.9738 7.51253C3.84838 7.64102 3.75354 7.81233 3.71683 7.98058C3.52411 8.86467 3.3375 9.74875 3.1509 10.6328L3.04689 11.1223C2.99794 11.3609 3.06218 11.5995 3.22431 11.7617C3.34974 11.8871 3.52411 11.9574 3.70766 11.9574C3.75966 11.9574 3.81167 11.9513 3.86367 11.9421L4.40208 11.829C5.25863 11.6485 6.11824 11.4649 6.9748 11.2875C7.17364 11.2447 7.34189 11.1559 7.48567 11.0122C9.89014 8.60464 12.2946 6.20017 14.6991 3.79876C14.8765 3.62133 14.9744 3.41025 14.9989 3.15023C15.0019 3.1074 14.9989 3.06457 14.9897 3.0248C14.9744 2.96362 14.9622 2.89938 14.9469 2.8382C14.9132 2.68218 14.8765 2.50475 14.8031 2.33344C14.3534 1.30558 13.607 0.57139 12.5852 0.158409C12.3803 0.0758123 12.1631 0.0482802 11.9734 0.0238073L11.9214 0.017689C11.6461 -0.0159613 11.3952 0.0758123 11.178 0.296069C9.80142 1.67879 8.41564 3.06457 7.03292 4.4473ZM11.8204 0.754937C11.8266 0.754937 11.8296 0.754937 11.8357 0.754937L11.8877 0.761055C12.0468 0.77941 12.1937 0.797765 12.3099 0.846711C13.142 1.18321 13.7538 1.7828 14.124 2.62712C14.1668 2.72501 14.1943 2.85043 14.2219 2.98198C14.231 3.03092 14.2433 3.07987 14.2524 3.12881C14.2402 3.18388 14.2188 3.22059 14.176 3.26036C11.7684 5.66177 9.36397 8.06929 6.9595 10.4738C6.91973 10.5135 6.88302 10.5319 6.82796 10.5441C5.96835 10.7246 5.11179 10.9051 4.25218 11.0856L3.79943 11.1804L3.88508 10.7797C4.07169 9.89865 4.2583 9.01456 4.44796 8.13354C4.45408 8.106 4.47855 8.06318 4.50609 8.03259C5.03837 7.49418 5.57066 6.95883 6.10601 6.42655L7.55909 4.97346C8.94487 3.58768 10.3307 2.2019 11.7134 0.81306C11.7715 0.764114 11.799 0.754937 11.8204 0.754937Z" fill="#1252F7"/>
<path d="M1.19 3.34599H6.53122C6.73924 3.34599 6.90749 3.17774 6.90749 2.96972C6.90749 2.7617 6.73924 2.59344 6.53122 2.59344H1.19C0.532287 2.59344 0 3.12879 0 3.78344V13.799C0 14.4567 0.535346 14.989 1.19 14.989H11.2025C11.8602 14.989 12.3925 14.4537 12.3925 13.799V8.67498C12.3925 8.46696 12.2242 8.2987 12.0162 8.2987C11.8082 8.2987 11.64 8.46696 11.64 8.67498V13.799C11.64 14.0407 11.4411 14.2395 11.1994 14.2395H1.19C0.948327 14.2395 0.749485 14.0407 0.749485 13.799V3.7865C0.749485 3.54483 0.948327 3.34599 1.19 3.34599Z" fill="#1252F7"/>
</svg>
