<svg width="20" height="20" viewBox="0 0 20 20" fill="none" xmlns="http://www.w3.org/2000/svg">
<path d="M5.31758 13.8143C4.74859 13.8143 4.28564 14.2772 4.28564 14.8462C4.28564 15.4152 4.74859 15.8781 5.31758 15.8781C5.88657 15.8781 6.34952 15.4152 6.34952 14.8462C6.34952 14.2772 5.88657 13.8143 5.31758 13.8143ZM5.31758 15.141C5.15498 15.141 5.02274 15.0088 5.02274 14.8462C5.02274 14.6837 5.15498 14.5514 5.31758 14.5514C5.48018 14.5514 5.61242 14.6837 5.61242 14.8462C5.61242 15.0088 5.48013 15.141 5.31758 15.141Z" fill="white"/>
<path d="M14.6823 13.8143C14.1133 13.8143 13.6504 14.2772 13.6504 14.8462C13.6504 15.4152 14.1133 15.8781 14.6823 15.8781C15.2513 15.8781 15.7143 15.4152 15.7143 14.8462C15.7143 14.2772 15.2513 13.8143 14.6823 13.8143ZM14.6823 15.141C14.5197 15.141 14.3875 15.0088 14.3875 14.8462C14.3875 14.6837 14.5197 14.5514 14.6823 14.5514C14.8449 14.5514 14.9772 14.6837 14.9772 14.8462C14.9772 15.0088 14.8449 15.141 14.6823 15.141Z" fill="white"/>
<path d="M14.9781 4.86485H12.64L11.9387 3.68058C11.8723 3.56854 11.7517 3.49985 11.6216 3.49985H8.37847C8.24825 3.49985 8.12766 3.56854 8.06137 3.68058L7.3601 4.86485H5.02198C3.90935 4.86485 3.00415 5.77006 3.00415 6.88268V14.6842C3.00415 15.6178 3.54449 16.4272 4.32866 16.8173L3.07132 19.4737C2.9843 19.6577 3.06282 19.8775 3.24675 19.9645C3.29771 19.9886 3.35137 20.0001 3.4042 20.0001C3.54223 20.0001 3.67456 19.9221 3.73756 19.7891L5.03878 17.04C5.13603 17.0543 5.2352 17.0622 5.33583 17.0643L4.42006 19.5018C4.34847 19.6924 4.44488 19.9049 4.63544 19.9765C4.67815 19.9925 4.72193 20.0001 4.76503 20.0001C4.91412 20.0001 5.05456 19.9089 5.11004 19.7611L5.5519 18.5849H14.448L14.8899 19.7611C14.9454 19.909 15.0858 20.0001 15.2349 20.0001C15.278 20.0001 15.3218 19.9925 15.3645 19.9765C15.555 19.9049 15.6515 19.6924 15.5799 19.5018L14.6641 17.0643C14.7648 17.0622 14.8639 17.0543 14.9612 17.04L16.2625 19.7891C16.3255 19.9222 16.4578 20.0001 16.5958 20.0001C16.6487 20.0001 16.7024 19.9887 16.7533 19.9645C16.9373 19.8775 17.0158 19.6577 16.9287 19.4737L15.6713 16.8174C16.4555 16.4273 16.9958 15.6179 16.9958 14.6842V6.88268C16.9959 5.77006 16.0907 4.86485 14.9781 4.86485ZM8.58855 4.23694H11.4114L11.7833 4.86485H8.2167L8.58855 4.23694ZM5.82885 17.8477L6.12276 17.0655H13.8773L14.1712 17.8477H5.82885ZM16.2588 14.6842C16.2588 15.5908 15.5212 16.3284 14.6146 16.3284H5.38551C4.47889 16.3284 3.7413 15.5908 3.7413 14.6842V6.88268C3.7413 6.17649 4.31579 5.60195 5.02203 5.60195H14.9781C15.6843 5.60195 16.2588 6.17649 16.2588 6.88268V14.6842H16.2588Z" fill="white"/>
<path d="M14.9781 5.94592H5.02196C4.50545 5.94592 4.08521 6.36612 4.08521 6.88268V12.0638C4.08521 12.7808 4.66849 13.3641 5.38544 13.3641H14.6145C15.3315 13.3641 15.9148 12.7808 15.9148 12.0638V6.88268C15.9148 6.36612 15.4945 5.94592 14.9781 5.94592ZM15.1777 12.0638C15.1777 12.3743 14.9251 12.627 14.6145 12.627H5.38549C5.07498 12.627 4.82235 12.3743 4.82235 12.0638V8.40291H13.6199C13.8235 8.40291 13.9885 8.2379 13.9885 8.03436C13.9885 7.83083 13.8235 7.66582 13.6199 7.66582H4.82235V6.88263C4.82235 6.77255 4.91188 6.68297 5.02201 6.68297H14.9781C15.0881 6.68297 15.1777 6.77255 15.1777 6.88263V12.0638H15.1777Z" fill="white"/>
<path d="M9.99994 0C4.93303 0 0.810791 4.12224 0.810791 9.18914V19.6314C0.810791 19.8349 0.975753 19.9999 1.17934 19.9999C1.38293 19.9999 1.54789 19.8349 1.54789 19.6314V9.18914C1.54789 4.52868 5.33947 0.737097 9.99994 0.737097C14.6604 0.737097 18.452 4.52868 18.452 9.18914V19.6314C18.452 19.8349 18.6169 19.9999 18.8205 19.9999C19.0241 19.9999 19.1891 19.8349 19.1891 19.6314V9.18914C19.1891 4.12224 15.0668 0 9.99994 0Z" fill="white"/>
<path d="M14.9003 7.89329C14.8394 7.74867 14.6912 7.65565 14.5341 7.66719C14.3796 7.67855 14.2468 7.78685 14.2051 7.93628C14.1164 8.25378 14.4784 8.52223 14.757 8.34577C14.907 8.25078 14.9682 8.05736 14.9003 7.89329C14.891 7.87117 14.9096 7.91589 14.9003 7.89329Z" fill="white"/>
</svg>
