<svg width="20" height="20" viewBox="0 0 20 20" fill="none" xmlns="http://www.w3.org/2000/svg">
<path fill-rule="evenodd" clip-rule="evenodd" d="M10 8.1445C10.3201 8.1445 10.5796 8.39583 10.5796 8.70583V11.6996C10.5796 12.0096 10.3201 12.2609 10 12.2609C9.67992 12.2609 9.42042 12.0096 9.42042 11.6996V8.70583C9.42042 8.39583 9.67992 8.1445 10 8.1445Z" fill="#959723"/>
<path d="M10.7727 13.9449C10.7727 14.3582 10.4267 14.6933 10 14.6933C9.57325 14.6933 9.22725 14.3582 9.22725 13.9449C9.22725 13.5316 9.57325 13.1965 10 13.1965C10.4267 13.1965 10.7727 13.5316 10.7727 13.9449Z" fill="#959723"/>
<path fill-rule="evenodd" clip-rule="evenodd" d="M8.28172 3.3827C9.11175 2.20577 10.8883 2.20577 11.7183 3.3827C12.7476 4.84214 14.2044 6.96509 15.1791 8.62975C16.2022 10.3772 17.3672 12.769 18.1422 14.4176C18.7524 15.7152 17.8319 17.1859 16.3657 17.2702C14.5594 17.374 11.9641 17.5 10 17.5C8.03587 17.5 5.4406 17.374 3.63426 17.2702C2.16809 17.1859 1.24762 15.7152 1.85772 14.4176C2.63283 12.769 3.79773 10.3772 4.8209 8.62975C5.79558 6.96509 7.25243 4.84214 8.28172 3.3827ZM10.7612 4.01594C10.3913 3.49157 9.60867 3.49157 9.23883 4.01594C8.21086 5.47351 6.77797 7.56306 5.82913 9.1835C4.83332 10.8842 3.68646 13.2368 2.91257 14.8828C2.64117 15.4601 3.04583 16.1117 3.7029 16.1495C5.50727 16.2532 8.07297 16.3773 10 16.3773C11.927 16.3773 14.4927 16.2532 16.2971 16.1495C16.9542 16.1117 17.3588 15.4601 17.0874 14.8828C16.3135 13.2368 15.1667 10.8842 14.1708 9.1835C13.222 7.56306 11.7892 5.47351 10.7612 4.01594Z" fill="#959723"/>
</svg>
