<svg width="19" height="19" viewBox="0 0 19 19" fill="none" xmlns="http://www.w3.org/2000/svg">
<g clip-path="url(#clip0_52_7135)">
<path d="M5.05175 13.1236C4.51121 13.1236 4.07141 13.5634 4.07141 14.1039C4.07141 14.6445 4.51121 15.0843 5.05175 15.0843C5.59229 15.0843 6.03209 14.6445 6.03209 14.1039C6.03209 13.5634 5.59229 13.1236 5.05175 13.1236ZM5.05175 14.384C4.89728 14.384 4.77165 14.2584 4.77165 14.1039C4.77165 13.9495 4.89728 13.8238 5.05175 13.8238C5.20622 13.8238 5.33185 13.9495 5.33185 14.1039C5.33185 14.2584 5.20618 14.384 5.05175 14.384Z" fill="black" fill-opacity="0.35"/>
<path d="M13.9483 13.1236C13.4077 13.1236 12.9679 13.5634 12.9679 14.1039C12.9679 14.6445 13.4077 15.0843 13.9483 15.0843C14.4888 15.0843 14.9286 14.6445 14.9286 14.1039C14.9286 13.5634 14.4888 13.1236 13.9483 13.1236ZM13.9483 14.384C13.7938 14.384 13.6682 14.2584 13.6682 14.1039C13.6682 13.9495 13.7938 13.8238 13.9483 13.8238C14.1027 13.8238 14.2284 13.9495 14.2284 14.1039C14.2284 14.2584 14.1027 14.384 13.9483 14.384Z" fill="black" fill-opacity="0.35"/>
<path d="M14.2292 4.62158H12.0079L11.3417 3.49653C11.2787 3.39009 11.1641 3.32483 11.0404 3.32483H7.95952C7.83581 3.32483 7.72125 3.39009 7.65827 3.49653L6.99206 4.62158H4.77085C3.71386 4.62158 2.85391 5.48153 2.85391 6.53852V13.9499C2.85391 14.8369 3.36724 15.6058 4.1122 15.9764L2.91773 18.5C2.83505 18.6748 2.90965 18.8836 3.08439 18.9663C3.1328 18.9892 3.18377 19 3.23396 19C3.36509 19 3.49081 18.926 3.55065 18.7996L4.78681 16.188C4.8792 16.2015 4.97341 16.2091 5.06901 16.2111L4.19903 18.5267C4.13101 18.7078 4.22261 18.9096 4.40364 18.9776C4.44421 18.9928 4.4858 19.0001 4.52674 19.0001C4.66838 19.0001 4.8018 18.9134 4.8545 18.773L5.27428 17.6557H13.7256L14.1454 18.773C14.1981 18.9135 14.3314 19.0001 14.4731 19.0001C14.5141 19.0001 14.5557 18.9928 14.5962 18.9776C14.7773 18.9096 14.8689 18.7078 14.8008 18.5267L13.9309 16.2111C14.0265 16.2091 14.1207 16.2015 14.2131 16.188L15.4493 18.7996C15.5092 18.926 15.6349 19 15.766 19C15.8162 19 15.8672 18.9892 15.9156 18.9663C16.0904 18.8836 16.165 18.6748 16.0822 18.5L14.8877 15.9765C15.6327 15.6059 16.146 14.837 16.146 13.95V6.53852C16.146 5.48153 15.2861 4.62158 14.2292 4.62158ZM8.15909 4.02507H10.8408L11.1941 4.62158H7.80584L8.15909 4.02507ZM5.53738 16.9553L5.81659 16.2122H13.1834L13.4626 16.9553H5.53738ZM15.4458 13.9499C15.4458 14.8112 14.7451 15.5119 13.8838 15.5119H5.11621C4.25491 15.5119 3.5542 14.8112 3.5542 13.9499V6.53852C3.5542 5.86764 4.09997 5.32183 4.7709 5.32183H14.2292C14.9 5.32183 15.4459 5.86764 15.4459 6.53852V13.9499H15.4458Z" fill="black" fill-opacity="0.35"/>
<path d="M14.2292 5.64862H4.77087C4.28018 5.64862 3.88095 6.04781 3.88095 6.53854V11.4606C3.88095 12.1417 4.43508 12.6959 5.11618 12.6959H13.8838C14.5649 12.6959 15.119 12.1417 15.119 11.4606V6.53854C15.119 6.04781 14.7198 5.64862 14.2292 5.64862ZM14.4188 11.4606C14.4188 11.7556 14.1788 11.9956 13.8838 11.9956H5.11622C4.82124 11.9956 4.58124 11.7556 4.58124 11.4606V7.98276H12.939C13.1324 7.98276 13.2891 7.826 13.2891 7.63264C13.2891 7.43928 13.1324 7.28252 12.939 7.28252H4.58124V6.53849C4.58124 6.43392 4.6663 6.34882 4.77091 6.34882H14.2292C14.3337 6.34882 14.4188 6.43392 14.4188 6.53849V11.4606H14.4188Z" fill="black" fill-opacity="0.35"/>
<path d="M9.50001 0C4.68645 0 0.770325 3.91613 0.770325 8.72969V18.6498C0.770325 18.8431 0.927039 18.9999 1.12045 18.9999C1.31385 18.9999 1.47057 18.8431 1.47057 18.6498V8.72969C1.47057 4.30224 5.07257 0.700242 9.50001 0.700242C13.9275 0.700242 17.5295 4.30224 17.5295 8.72969V18.6498C17.5295 18.8431 17.6862 18.9999 17.8796 18.9999C18.073 18.9999 18.2297 18.8431 18.2297 18.6498V8.72969C18.2297 3.91613 14.3136 0 9.50001 0Z" fill="black" fill-opacity="0.35"/>
<path d="M14.1554 7.4986C14.0975 7.36122 13.9567 7.27284 13.8075 7.28382C13.6607 7.2946 13.5346 7.39749 13.4949 7.53945C13.4106 7.84107 13.7546 8.0961 14.0193 7.92846C14.1617 7.83822 14.2199 7.65448 14.1554 7.4986C14.1465 7.4776 14.1642 7.52008 14.1554 7.4986Z" fill="black" fill-opacity="0.35"/>
</g>
<defs>
<clipPath id="clip0_52_7135">
<rect width="19" height="19" fill="white"/>
</clipPath>
</defs>
</svg>
