<svg width="15" height="15" viewBox="0 0 15 15" fill="none" xmlns="http://www.w3.org/2000/svg">
<path d="M7.5 11.25C7.845 11.25 8.125 11.53 8.125 11.875C8.125 12.22 7.845 12.5 7.5 12.5C7.155 12.5 6.875 12.22 6.875 11.875C6.875 11.53 7.155 11.25 7.5 11.25ZM15 12.1875V2.8125C15 1.26188 13.7381 0 12.1875 0H2.8125C1.26188 0 0 1.26188 0 2.8125V12.1875C0 13.7381 1.26188 15 2.8125 15H12.1875C13.7381 15 15 13.7381 15 12.1875ZM12.1875 0.625C13.3938 0.625 14.375 1.60625 14.375 2.8125V12.1875C14.375 13.3938 13.3938 14.375 12.1875 14.375H2.8125C1.60625 14.375 0.625 13.3938 0.625 12.1875V2.8125C0.625 1.60625 1.60625 0.625 2.8125 0.625H12.1875ZM7.8125 9.6875V9.28375C7.8125 8.7275 8.19625 8.09688 8.705 7.81625C9.6425 7.29937 10.1469 6.23812 9.96062 5.175C9.78375 4.16812 8.9575 3.34125 7.95062 3.165C7.26187 3.045 6.57312 3.20187 6.0125 3.60812C5.46562 4.005 5.0975 4.61063 5.00313 5.26875C4.97875 5.43938 5.0975 5.59812 5.26813 5.6225C5.44062 5.6475 5.5975 5.52812 5.62187 5.3575C5.69187 4.86562 5.96812 4.4125 6.37937 4.11438C6.80125 3.8075 7.32125 3.68938 7.8425 3.78125C8.595 3.91313 9.21313 4.53125 9.345 5.28375C9.48812 6.09625 9.11812 6.87562 8.40375 7.26937C7.6875 7.66437 7.1875 8.49312 7.1875 9.28437V9.68813C7.1875 9.86063 7.3275 10.0006 7.5 10.0006C7.6725 10.0006 7.8125 9.86063 7.8125 9.68813V9.6875Z" fill="#9F999A"/>
</svg>
