<svg width="20" height="20" viewBox="0 0 20 20" fill="none" xmlns="http://www.w3.org/2000/svg">
<path fill-rule="evenodd" clip-rule="evenodd" d="M9.99999 8.14453C10.3201 8.14453 10.5796 8.39586 10.5796 8.70586V11.6996C10.5796 12.0096 10.3201 12.2609 9.99999 12.2609C9.67991 12.2609 9.42041 12.0096 9.42041 11.6996V8.70586C9.42041 8.39586 9.67991 8.14453 9.99999 8.14453Z" fill="#FF3434"/>
<path d="M10.7727 13.9449C10.7727 14.3582 10.4267 14.6933 10 14.6933C9.57325 14.6933 9.22725 14.3582 9.22725 13.9449C9.22725 13.5316 9.57325 13.1965 10 13.1965C10.4267 13.1965 10.7727 13.5316 10.7727 13.9449Z" fill="#FF3434"/>
<path fill-rule="evenodd" clip-rule="evenodd" d="M8.28172 3.3827C9.11176 2.20577 10.8883 2.20577 11.7183 3.3827C12.7476 4.84214 14.2044 6.96509 15.1791 8.62975C16.2023 10.3772 17.3672 12.769 18.1423 14.4176C18.7524 15.7152 17.8319 17.1859 16.3658 17.2702C14.5594 17.374 11.9641 17.5 10 17.5C8.03588 17.5 5.44061 17.374 3.63426 17.2702C2.1681 17.1859 1.24763 15.7152 1.85772 14.4176C2.63284 12.769 3.79774 10.3772 4.82091 8.62975C5.79559 6.96509 7.25244 4.84214 8.28172 3.3827ZM10.7612 4.01594C10.3913 3.49157 9.60867 3.49157 9.23884 4.01594C8.21086 5.47351 6.77797 7.56306 5.82914 9.1835C4.83332 10.8842 3.68646 13.2368 2.91258 14.8828C2.64117 15.4601 3.04584 16.1117 3.70291 16.1495C5.50728 16.2532 8.07297 16.3773 10 16.3773C11.927 16.3773 14.4928 16.2532 16.2971 16.1495C16.9542 16.1117 17.3588 15.4601 17.0874 14.8828C16.3135 13.2368 15.1667 10.8842 14.1708 9.1835C13.222 7.56306 11.7892 5.47351 10.7612 4.01594Z" fill="#FF3434"/>
</svg>
